# Blender v2.78 (sub 0) OBJ File: ''
# www.blender.org
mtllib room_walls.mtl
o default
v -2.000000 0.000000 -2.000000
v -2.000000 1.410000 2.000000
v -2.000000 -0.000000 2.000000
v -2.000000 1.410000 -2.000000
v 2.000000 1.410000 2.000000
v 2.000000 0.000000 -2.000000
v 2.000000 -0.000000 2.000000
v 2.000000 1.410000 -2.000000
v 0.506601 -0.006435 2.005880
v 0.506601 1.392285 2.005880
v 0.499500 0.005640 2.000000
v 0.499500 1.404360 2.000000
v -0.499696 1.409670 -2.001876
v -0.499696 -0.000330 -2.001876
v -0.500000 0.000000 -2.000000
v -0.500000 1.410000 -2.000000
vt 2.5000 0.5000
vt -1.5000 1.0000
vt -1.5000 0.5000
vt 2.5000 1.0000
vt -1.5000 1.0000
vt 2.5000 0.5000
vt -1.5000 0.5000
vt 2.5000 1.0000
vt 0.0005 0.5020
vt 0.0005 0.9980
vt 0.9995 0.5020
vt 2.5000 1.0000
vt 2.5000 0.5000
vt 0.9995 0.9980
vt 1.0000 1.0000
vt 1.0000 0.5000
vt -1.5000 1.0000
vt -1.5000 0.5000
vt 0.0000 0.5000
vt 0.0000 1.0000
vn 0.8962 -0.0000 0.4437
vn 0.7095 0.0000 -0.7047
vn 0.7074 0.0000 -0.7069
vn 0.4331 -0.0000 0.9013
vn -0.7080 0.0000 -0.7063
vn -0.8964 -0.0001 0.4433
vn -0.4423 0.0001 0.8969
vn 0.0023 0.0000 -1.0000
vn 0.0000 0.0000 -1.0000
vn -0.0008 0.0000 1.0000
vn 0.0000 -0.0000 1.0000
usemtl Default
s 1
f 1/1/1 2/2/2 3/3/3
f 4/4/4 2/2/2 1/1/1
f 5/5/5 6/6/6 7/7/5
f 5/5/5 8/8/7 6/6/6
f 2/2/2 9/9/8 3/3/3
f 2/2/2 10/10/8 9/9/8
f 11/11/9 5/12/5 7/13/5
f 12/14/9 5/12/5 11/11/9
f 8/8/7 13/15/10 14/16/10
f 6/6/6 8/8/7 14/16/10
f 4/17/4 1/18/1 15/19/11
f 16/20/11 4/17/4 15/19/11
