# Blender v2.78 (sub 0) OBJ File: ''
# www.blender.org
mtllib room_ceiling.mtl
o default.002
v -2.000000 1.370000 2.000000
v -0.100000 1.620000 0.100000
v 2.000000 1.370000 2.000000
v 0.100000 1.620000 0.100000
v -2.000000 1.370000 -2.000000
v -0.100000 1.620000 -0.100000
v 0.100000 1.620000 -0.100000
v 2.000000 1.370000 -2.000000
v 0.100000 1.880000 0.100000
v -0.100000 1.880000 0.100000
v -0.100000 1.880000 -0.100000
v 0.100000 1.880000 -0.100000
vt -3.5000 -3.5000
vt 0.3000 0.3000
vt 4.5000 -3.5000
vt 0.7000 0.3000
vt -3.5000 4.5000
vt 0.3000 0.7000
vt 0.7000 0.7000
vt 4.5000 4.5000
vt 0.3000 2.0000
vt 0.7000 2.5200
vt 0.7000 2.0000
vt 0.3000 2.5200
vt 0.7000 2.0000
vt 0.7000 2.5200
vt 0.7000 2.0000
vt 0.3000 2.5200
vt 0.3000 2.0000
vt 0.7000 2.5200
vt 0.3000 2.5200
vt 0.3000 2.0000
vn 0.0873 -0.9952 -0.0437
vn 0.2896 -0.7620 -0.5792
vn -0.0437 -0.9952 -0.0873
vn -0.3684 -0.8690 -0.3303
vn 0.0655 -0.9957 0.0655
vn 0.4774 -0.8374 0.2662
vn -0.5907 -0.5497 0.5907
vn -0.0655 -0.9957 0.0655
vn -0.7071 0.0000 -0.7071
vn 0.8944 0.0000 -0.4472
vn 0.4472 0.0000 0.8944
vn -0.7071 0.0000 0.7071
usemtl Default.002
s 1
f 1/1/1 2/2/2 3/3/3
f 2/2/2 4/4/4 3/3/3
f 5/5/5 6/6/6 1/1/1
f 6/6/6 2/2/2 1/1/1
f 7/7/7 6/6/6 8/8/8
f 8/8/8 6/6/6 5/5/5
f 4/4/4 8/8/8 3/3/3
f 4/4/4 7/7/7 8/8/8
f 2/9/2 9/10/9 4/11/4
f 10/12/10 9/10/9 2/9/2
f 6/13/6 10/12/10 2/9/2
f 11/14/11 10/12/10 6/13/6
f 7/15/7 11/16/11 6/17/6
f 12/18/12 11/16/11 7/15/7
f 9/19/9 7/15/7 4/20/4
f 9/19/9 12/18/12 7/15/7
